<svg xmlns="http://www.w3.org/2000/svg" fill="none" viewBox="0 0 950.97 178.84">
<g clip-path="url(#clip0_0_1)">
<path d="M1 108C6.94 108 12.88 108 19 108C19 123.18 19 138.36 19 154C72.13 154 125.26 154 180 154C180 138.82 180 123.64 180 108C186.27 108 192.54 108 199 108C199 130.44 199 152.88 199 176C133.33 176 67.66 176 0 176C0 109 0 109 1 108Z" fill="#0DEE56"/>
<path d="M0 0C65.67 0 131.34 0 199 0C199 22.11 199 44.22 199 67C198.67 67.33 198.34 67.66 198 68C192.06 68 186.12 68 180 68C180 52.82 180 37.64 180 22C126.87 22 73.74 22 19 22C19 37.18 19 52.36 19 68C13.06 68 7.12 68 1 68C0.67 67.67 0.34 67.34 0 67C0 44.89 0 22.78 0 0Z" fill="#0CED56"/>
<path d="M59 80C86.39 80 113.78 80 142 80C142 85.61 142 91.22 142 97C114.61 97 87.22 97 59 97C59 91.39 59 85.78 59 80Z" fill="#0DEE57"/>
<path d="M0.5 108V175" stroke="#0CED56"/>
<path d="M198.5 68V67M0.5 68V66.5" stroke="#0CED56"/>
</g>
<path d="M269.486 155.144H308.591V74.564H267.116V53.708H308.591V31.667C308.591 22.503 311.119 15.077 316.175 9.389C321.231 3.543 329.131 0.619998 339.875 0.619998H381.113V21.476H334.424V53.708H381.113V74.564H334.424V155.144H375.662V176H269.486V155.144ZM464.207 178.844C455.201 178.844 447.064 177.343 439.796 174.341C432.686 171.339 426.603 167.073 421.547 161.543C416.649 156.013 412.857 149.298 410.171 141.398C407.485 133.498 406.142 124.65 406.142 114.854C406.142 105.058 407.485 96.21 410.171 88.31C412.857 80.41 416.649 73.695 421.547 68.165C426.603 62.635 432.686 58.369 439.796 55.367C447.064 52.365 455.201 50.864 464.207 50.864C473.213 50.864 481.271 52.365 488.381 55.367C495.649 58.369 501.732 62.635 506.63 68.165C511.686 73.695 515.557 80.41 518.243 88.31C520.929 96.21 522.272 105.058 522.272 114.854C522.272 124.65 520.929 133.498 518.243 141.398C515.557 149.298 511.686 156.013 506.63 161.543C501.732 167.073 495.649 171.339 488.381 174.341C481.271 177.343 473.213 178.844 464.207 178.844ZM464.207 158.462C473.687 158.462 481.192 155.618 486.722 149.93C492.41 144.084 495.254 135.473 495.254 124.097V105.611C495.254 94.235 492.41 85.703 486.722 80.015C481.192 74.169 473.687 71.246 464.207 71.246C454.727 71.246 447.143 74.169 441.455 80.015C435.925 85.703 433.16 94.235 433.16 105.611V124.097C433.16 135.473 435.925 144.084 441.455 149.93C447.143 155.618 454.727 158.462 464.207 158.462ZM553.227 155.144H585.696V74.564H553.227V53.708H611.529V86.177H612.951C614.057 81.911 615.637 77.803 617.691 73.853C619.745 69.903 622.352 66.506 625.512 63.662C628.672 60.66 632.543 58.29 637.125 56.552C641.707 54.656 647.079 53.708 653.241 53.708H667.935V78.356H643.761C634.281 78.356 626.539 81.2 620.535 86.888C614.531 92.418 611.529 99.923 611.529 109.403V155.144H655.848V176H553.227V155.144ZM773.781 155.144H772.596C771.332 158.304 769.673 161.385 767.619 164.387C765.723 167.231 763.353 169.759 760.509 171.971C757.665 174.025 754.347 175.684 750.555 176.948C746.763 178.212 742.339 178.844 737.283 178.844C724.959 178.844 715.005 174.815 707.421 166.757C699.837 158.699 696.045 147.244 696.045 132.392V53.708H721.878V128.6C721.878 148.034 730.331 157.751 747.237 157.751C750.555 157.751 753.794 157.356 756.954 156.566C760.114 155.618 762.958 154.275 765.486 152.537C768.014 150.799 769.989 148.666 771.411 146.138C772.991 143.452 773.781 140.292 773.781 136.658V53.708H799.614V176H773.781V155.144ZM829.858 176V53.708H851.899V69.587H853.084C854.98 64.373 857.666 59.949 861.142 56.315C864.776 52.681 869.911 50.864 876.547 50.864C883.025 50.864 888.002 52.681 891.478 56.315C895.112 59.791 897.403 64.61 898.351 70.772H899.299C901.511 65.242 904.592 60.581 908.542 56.789C912.492 52.839 918.18 50.864 925.606 50.864C935.086 50.864 941.643 54.182 945.277 60.818C949.069 67.454 950.965 77.171 950.965 89.969V176H928.924V93.287C928.924 84.755 927.897 78.909 925.843 75.749C923.789 72.431 920.471 70.772 915.889 70.772C911.781 70.772 908.305 72.194 905.461 75.038C902.775 77.724 901.432 81.832 901.432 87.362V176H879.391V93.287C879.391 84.755 878.364 78.909 876.31 75.749C874.414 72.431 871.175 70.772 866.593 70.772C862.327 70.772 858.772 72.194 855.928 75.038C853.242 77.724 851.899 81.832 851.899 87.362V176H829.858Z" fill="white"/>
<defs>
<clipPath id="clip0_0_1">
<rect width="199" height="176" fill="white"/>
</clipPath>
</defs>
</svg>